<?xml version="1.2" encoding="iso-8859-1"?>
<!-- Generator: Adobe Illustrator 22.1.0, SVG Export Plug-In . SVG Version: 6.00 Build 0)  -->
<svg version="1.1" id="_x37_" xmlns="http://www.w3.org/2000/svg" xmlns:xlink="http://www.w3.org/1999/xlink" x="0px" y="0px"
	 viewBox="0 0 512 512" style="enable-background:new 0 0 512 512;" xml:space="preserve">
<g>
	<path fill="#769CB2" d="M257.678,57.24L54.701,167.039c0,0,1.334,30.66,2.987,38.96c1.653,8.299-1.463,72.693-1.463,72.693
		l2.023,155.25c0,0-0.737,16.855,9.054,16.214s387.87,0,387.87,0l2.166-283.869L257.678,57.24z"/>
	<polygon fill="#D5D5D5" points="266.6,433.475 328.169,402.268 284.168,387.47 269.592,377.443 234.716,385.308 	"/>
	<path fill="#A1A1A1" d="M263.976,423.966c1.064,0.432,36.686-17.074,36.686-17.074l-48.393-14.466L263.976,423.966z"/>
	<path fill="#C4C4C4" d="M146.147,413.077c-3.374-4.847-32.796-50.094-37.218-66.589c-4.422-16.495-7.033-25.78,0.906-28.636
		c7.94-2.856,63.993,12.043,72.781,13.827c8.788,1.784,48.145,8.213,53.306,14.809s9.304,8.495,11.499,17.987
		c2.195,9.492,17.024,49.095,18.512,53.308c1.488,4.213,4.778,11.424,4.778,11.424l-0.441,8.415c0,0-16.987-1.09-19.104-2.784
		C249.049,433.143,146.147,413.077,146.147,413.077z"/>
	<path fill="#A1A1A1" d="M324.861,405.537c-0.841,3.857-11.821,10.805-13.048,11.457
		c-1.227,0.652-38.424,20.932-40.882,20.804c-2.459-0.129-2.504,0.733-2.317-2.827c0.186-3.561,6.726-6.165,6.726-6.165
		s28.418-14.709,36.473-18.397C319.868,406.72,324.018,403.414,324.861,405.537z"/>
	<path fill="#94C85C" d="M272.103,393.008c-1.542,3.46-0.411,11.053,3.143,11.214s2.819-4.433,3.913-6.416
		c-0.037,2.647,0.244,9.525,3.415,10.394c3.171,0.545,3.036-5.237,4.558-7.596c1.521-2.359,2.383,0.825,1.548,2.706
		c-0.834,1.881-0.834,4.901,1.104,4.926c1.938,0.025,4.763-3.092,8.197-4.926c3.434-1.834,9.414-4.559,11.672-5.534
		c2.259-0.976,11.308,1.226,12.115,1.413c0.808,0.187,7.424,3.741,15.02,4.872c7.596,1.131,21.165,1.454,23.588-15.669
		c2.423-17.123,0.485-35.215-2.423-44.746c-1.454-4.765-7.594-21.942-13.086-32.926c-5.492-10.984-10.337-15.777-10.66-17.796
		c-0.646-4.038-1.807-9.835-1.807-9.835s-6.715-17.339-7.623-20.148c-0.908-2.809-16.416-21.224-18.031-24.132
		c-1.615-2.908-3.715-9.854-3.715-9.854s-4.038-16.638-9.208-19.384c-5.169-2.746-12.923-1.454-15.185,2.908
		c-2.262,4.361-8.723,13.966-8.723,13.966l-24.554-3.627c0,0-5.815-17.931-12.277-20.354c-6.462-2.423-15.023-0.485-17.931,7.915
		c-1.651,4.77-3.019,11.915-3.892,17.199c-0.642,3.885-3.99,6.727-7.927,6.709c-6.398-0.029-15.98,0.472-23.072,3.23
		c-11.631,4.523-14.215,7.269-10.015,11.631c4.2,4.361,15.669,8.238,20.031,9.531c4.361,1.292,16.154,36.83,16.154,36.83
		L272.103,393.008z"/>
	<path fill="#FFFFFF" d="M192.087,259.28c2.378,0.111,14.012,3.712,20.233,3.249c6.222-0.463,20.095,2.186,26.386,3.982
		c6.291,1.797,33.205,8.039,39.812,10.417c6.607,2.378,7.255,2.232,2.918,9.588c-4.337,7.355-6.169,22.808,1.138,34.254
		c7.307,11.446,18.695,53.822,17.014,55.225c-1.681,1.403-21.675,8.353-25.62,15.045c-1.865,1.968-4.323,0-4.323,0
		s-15.073-0.593-15.104-1.47c-0.031-0.877-8.354-30.007-13.407-38.33c-5.053-8.323-60.675-18.258-61.846-18.79
		c-1.171-3.801,1.469-10.713,4.459-13.945c2.99-3.232,6.077-5.876,8.992-12.728c2.916-6.853,3.02-20.59,3.116-26.057
		c0.096-5.467-3.339-14.716-3.107-16.78S192.087,259.28,192.087,259.28z"/>
	<g>
		<path fill="#231815" d="M211.159,222.929c-1.502-2.924-0.989-6.826-0.182-9.333c0.225-0.628,0.795-2.461,2.043-4.679
			c1.226-2.212,3.191-4.829,5.906-6.723c2.676-1.944,6.117-2.866,8.844-2.732c0.686-0.054,1.334,0.112,1.937,0.184
			c0.599,0.107,1.169,0.118,1.643,0.316c0.954,0.327,1.747,0.493,2.176,0.67c1.798,0.586,3.575,1.824,5.144,3.771
			c1.587,1.935,3.083,4.491,4.828,7.777c1.277,2.375,2.119,5.681,2.815,8.155c0.182,0.602,0.353,1.171,0.507,1.686
			c0.174,0.473,0.329,0.896,0.46,1.25c0.298,0.618,0.482,0.996,0.482,0.996c-0.135,0.182-0.758,0.04-1.62-0.684
			c-0.862-0.716-1.843-2.009-2.766-3.463c-1.827-2.947-3.61-6.378-4.38-8.019c-0.739-1.665-1.931-3.92-3.393-5.681
			c-0.703-0.914-1.541-1.592-2.247-2.199c-0.799-0.449-1.408-0.971-1.931-1.098c-0.247-0.092-0.646-0.24-1.158-0.43
			c-0.531-0.124-1.207-0.176-1.941-0.293c-1.5-0.001-3.344,0.146-4.944,0.961c-3.281,1.512-5.285,4.678-5.52,5.385
			c-0.619,1.396-2.141,4.877-2.38,8.533c-0.233,3.542-1.332,5.167-2.356,6.325c-0.496,0.556-0.981,0.43-1.35,0.114
			C211.406,223.41,211.159,222.929,211.159,222.929z"/>
		<path fill="#231815" d="M239.921,220.034c1.381-0.362,3.181,0.253,4.433,0.67c0.625,0.217,3.655,1.312,6.865,2.141
			c3.195,0.854,6.511,1.464,7.451,1.242c1.869-0.458,3.876,0.419,7.88,0.163c1.43-0.102,3.23,0.329,4.629,0.661
			c0.631,0.146,1.201,0.278,1.614,0.374c0.376,0.081,0.392,0.145,0.441,0.149c0.112,0.197,0.176,0.568-0.38,1.001
			c-0.521,0.411-1.412,0.815-2.39,1.099c-1.97,0.587-4.284,0.816-5.365,0.679c-2.17-0.266-6.039-0.831-7.384-1.103
			c-1.348-0.197-9.365-1.289-10.407-1.254c-1.046,0.099-3.447-0.15-5.957-0.654c-2.446-0.47-3.532-2.736-3.018-4.211
			c0.364-0.591,0.829-0.636,1.138-0.702C239.825,220.188,239.867,219.998,239.921,220.034z"/>
		<path fill="#231815" d="M270.809,227.125c-1.305-1.745-1.017-3.863-0.582-5.383c0.48-1.581,1.256-2.878,1.939-3.91
			c0.67-1.063,4.158-5.668,9.171-8.797c2.472-1.53,5.486-2.852,8.511-2.383c2.578,0.549,4.409,1.509,5.206,1.951
			c1.706,0.733,3.044,2.319,4.223,4.375c1.167,2.084,1.992,4.721,3.113,7.894c0.821,2.306,1.212,5.262,1.796,7.422
			c0.129,0.56,0.276,1.062,0.447,1.483c0.155,0.438,0.274,0.863,0.445,1.143c0.302,0.63,0.486,1.014,0.486,1.014
			c-0.159,0.202-0.729-0.025-1.624-0.608c-0.398-0.331-0.842-0.777-1.334-1.292c-0.409-0.562-0.915-1.176-1.312-1.878
			c-1.669-2.81-2.856-6.328-3.304-7.957c-0.425-1.661-1.073-3.965-2.082-5.826c-0.968-1.912-2.468-3.082-3.255-3.639
			c-0.431-0.229-1.373-0.785-2.76-1.064c-1.238-0.392-2.797-0.01-4.317,0.724c-3.046,1.516-5.424,4.205-5.812,4.813
			c-0.803,1.237-3.116,4.19-4.284,7.276c-0.572,1.521-1.003,2.296-1.477,2.795c-0.476,0.476-0.991,0.941-1.099,1.647
			c-0.131,0.668-0.517,0.941-1.073,0.833C271.291,227.696,270.809,227.125,270.809,227.125z"/>
		<path fill="#231815" d="M201.726,236.128c-7.576,1.958-16.694,2.9-22.725,4.875c-0.752,0.238-2.198,0.71-4.01,1.546
			c-0.872,0.452-1.829,0.992-2.74,1.691c-0.433,0.343-0.799,0.717-1.095,1.091c-0.239,0.377-0.386,0.712-0.419,1.027
			c-0.059,0.601,0.509,1.726,1.645,2.74c1.099,1.026,2.535,1.983,4.098,2.846c3.136,1.739,6.773,3.19,10.475,4.393
			c1.863,0.591,3.722,1.132,5.588,1.5c1.918,0.399,3.829,0.75,5.7,1.074c3.745,0.637,7.349,1.132,10.605,1.531
			c6.515,0.784,11.639,1.245,13.811,1.328c4.292,0.107,9.21,0.677,15.161,2.103c5.996,1.353,13.096,3.617,22.518,5.805
			c3.686,0.945,7.379,2.335,11.267,3.696c3.847,1.369,7.725,2.743,11.208,3.784c3.471,1.045,6.591,1.741,8.638,1.792
			c1.021,0.037,1.712-0.104,2.033-0.227c0.351-0.115,0.349-0.204,0.396-0.192c0.074,0.047,0.161,0.278-0.325,0.683
			c-0.5,0.391-1.657,0.733-3.165,0.821c-3.036,0.206-7.367-0.439-11.903-1.445c-4.552-1.003-9.363-2.38-13.639-3.644
			c-2.137-0.624-4.147-1.246-5.888-1.656c-1.824-0.431-3.408-0.843-4.646-1.199c-4.956-1.401-11.817-3.553-18.305-5.068
			c-6.466-1.586-12.634-2.111-15.874-2.521c-3.21-0.434-14.365-1.326-25.256-3.114c-11.106-1.567-21.088-6.456-23.186-7.969
			c-1.054-0.694-2.558-1.554-4.004-3.58c-0.688-0.99-1.371-2.56-1.111-4.355c0.251-1.789,1.301-3.204,2.364-4.218
			c2.145-2.01,4.746-3.33,7.459-4.385c2.721-1.045,5.573-1.806,8.419-2.437c5.7-1.224,9.854-1.337,12.894-1.261
			c3.042,0.098,5.001,0.497,6.335,0.833c1.34,0.348,0.783,0.881-0.139,1.33C202.987,235.802,201.726,236.128,201.726,236.128z"/>
		<path fill="#231815" d="M306.699,235.479c1.273,1.757,3.064,4.316,4.27,6.153c0.586,0.938,3.616,5.266,6.944,9.645
			c0.817,1.107,1.649,2.228,2.409,3.39c0.713,1.113,1.393,2.175,2.006,3.132c1.234,1.917,2.162,3.461,2.666,4.051
			c1.967,2.391,3.295,5.928,5.398,12.446c0.337,1.038,0.605,2.238,0.817,3.5l-4.674,0.481c0-0.365,0.106-0.835,0.347-1.231
			c0.118-0.197,0.264-0.372,0.411-0.514c0.149-0.133,0.247-0.24,0.643-0.429c0.347-0.162,0.885-0.269,1.402-0.171
			c0.517,0.091,0.925,0.347,1.171,0.569l0.147,0.144l0.031,0.033l0.057,0.07c0.165,0.196,0.294,0.416,0.294,0.428l0.163,0.331
			l0.19,0.466l0.29,0.828c0.163,0.532,0.325,1.062,0.482,1.581c0.292,1.03,0.537,2.007,0.74,2.853
			c0.194,0.837,0.358,1.546,0.472,2.047c0.049,0.222,0.088,0.396,0.114,0.517l0.004,0.03l-0.002,0.005l-0.141,0.049
			c-0.212,0.105-0.402,0.219-0.57,0.33l-0.233,0.167l-0.157,0.038l0.004,0.094l-0.102-0.058l-0.184-0.001l-0.139,0.075
			c-0.065,0.094,0.065-0.183,0.39-0.04l0.008-0.037l0.135-0.051l0.49-0.32l0.304-0.168v0.021l-0.035-0.003
			c-0.102-0.032-0.259-0.189-0.431-0.381c-0.345-0.395-0.78-1.014-1.263-1.76c-0.482-0.747-1.013-1.624-1.555-2.549
			c-0.27-0.463-0.546-0.935-0.821-1.407l-0.413-0.698l-0.208-0.327l-0.094-0.13l-0.014-0.015l0.006,0.014l0.202-0.154l0.255-0.244
			l0.231,0.017l-0.885,0.133c-0.689-2.035-1.312-3.912-1.587-5.029c-0.415-1.681-1.105-3.995-1.963-6.067
			c-0.84-2.08-1.835-3.927-2.362-4.883c-0.5-0.951-2.552-4.188-4.752-7.125c-2.274-2.856-4.768-5.611-5.347-6.156
			c-1.195-1.095-3.827-3.935-6.243-7.206c-2.439-3.224-2.041-6.292-0.87-7.243c0.497-0.415,0.838,0.02,1.103,0.245
			C306.47,235.189,306.683,235.46,306.699,235.479z"/>
		<path fill="#231815" d="M193.378,259.967c1.851,1.933,2.513,4.786,2.956,6.823c0.202,1.027,1.044,5.891,1.359,10.888
			c0.366,4.994,0.208,10.076,0.451,11.468c0.609,2.806-0.12,5.961-1.162,12.241c-0.184,1.143-0.721,2.385-1.263,3.618
			c-0.582,1.223-1.389,2.366-2.065,3.378c-1.52,1.957-2.866,3.244-2.866,3.244c-0.247-0.118-0.214-0.829-0.02-1.842
			c0.196-1.013,0.582-2.309,0.842-3.743c0.159-0.699,0.323-1.418,0.482-2.127c0.129-0.715,0.257-1.42,0.376-2.083
			c0.306-1.297,0.431-2.474,0.662-3.198c0.913-2.908,1.628-8.4,1.651-10.347c0.125-0.962,0.022-4.323-0.358-7.577
			c-0.419-3.257-1.117-6.39-1.42-7.036c-0.609-1.298-1.493-4.543-2.674-7.689c-1.158-3.131-0.057-5.041,0.895-6.172
			C192.171,258.688,193.378,259.967,193.378,259.967z"/>
		<path fill="#231815" d="M53.072,245.1c0.116-2.701,0.184-5.294,0.206-7.784c-0.008-2.405,0.002-5.128,0.194-7.52
			c0.351-4.88,1.079-9.25,1.681-13.221c1.277-7.942,1.978-14.319,1.661-19.599c-0.268-5.32-0.768-9.652-0.762-12.908
			c-0.033-3.262,0.284-5.423,0.666-6.567c0.813-2.284,1.512-0.645,2.409,3.565c0.474,2.122,1.081,4.899,1.739,8.358
			c0.627,3.447,1.322,7.645,1.222,12.447c-0.21,9.528-2.405,18.47-3.14,27.169c-0.186,2.18-0.268,4.305-0.266,6.47
			c0,2.272-0.033,4.528-0.118,6.757c-0.153,4.462-0.415,8.841-0.638,13.139c-0.437,8.577-0.758,16.899,0.131,24.533
			c0.227,1.967,0.505,4.037,0.588,6.203c0.102,2.218-0.131,4.407-0.337,6.298c-0.196,1.88-0.445,3.867-0.56,5.514
			c-0.108,1.654-0.078,3.383,0.002,5.11c0.323,6.95,1.741,14.246,1.385,22.03l-0.419,10.874c-0.151,3.582-0.215,7.344-0.688,11.125
			c-0.419,3.662-0.993,7.263-1.224,10.657c-0.247,3.476-0.259,7.048-0.241,10.638c0.033,7.196,0.38,14.483-0.086,21.967
			c-0.28,4.042-0.558,8.498-0.507,13.264c0.029,4.75,0.36,9.734,0.778,14.677c0.411,4.941,0.785,9.834,0.87,14.288
			c0.102,4.456-0.065,8.464-0.274,11.68h-0.78c0.684-9.439,1.33-12.279,1.665,0h-2.55c-0.031-0.818-0.076-2.01-0.125-3.327
			c-0.341-9.006-1.575-16.538-2.678-23.634c-1.12-7.09-1.861-13.814-1.951-20.761c-0.053-1.739,0.002-3.485,0.014-5.264
			c0.027-1.723,0.039-3.409-0.006-5.191c-0.08-3.544-0.278-7.279-0.474-11.304c-0.184-4.032-0.403-8.342-0.36-13.105
			c0.016-2.379,0.104-4.875,0.374-7.517c0.286-2.499,0.584-5.098,0.895-7.811c0.58-5.069,0.554-10.86,0.844-16.605
			c0.086-2.859,0.308-5.878,0.259-8.477c-0.051-2.732-0.319-5.578-0.582-8.44c-0.268-2.866-0.56-5.773-0.715-8.725
			c-0.084-1.472-0.112-2.972-0.09-4.481c0.029-1.487,0.182-3.154,0.351-4.475c0.311-2.778,0.772-5.518,0.83-7.788
			c0.063-2.336-0.257-4.783-0.472-7.361c-0.453-5.203-0.341-9.968-0.163-14.197c0.188-4.231,0.474-7.932,0.707-10.996
			C52.798,248.711,53.072,245.1,53.072,245.1z"/>
		<path fill="#231815" d="M83.243,148.251c-4.38,2.348-8.82,4.729-13.137,7.044c-6.109,3.219-17.817,9.494-28.731,15.657
			c-10.91,6.285-20.802,11.979-24.194,12.931c-4.556,1.421-9.649,3.862-13.106,6.783c-3.438,2.919-5.369,6.461-3.085,10.474
			c1.857,3.259,6.27,3.393,10.777,1.82c4.513-1.549,8.983-4.743,11.286-7.464c0.762-0.888,3.535-3.024,7.339-5.897
			c3.81-2.866,8.636-6.488,13.723-10.113c10.195-7.226,21.813-14.592,27.458-18.25c5.955-3.87,11.753-7.243,15.886-9.189
			c2.999-1.468,21.989-11.382,44.983-23.512c23.068-12.08,49.321-27.694,68.051-37.946c4.595-2.5,8.76-4.827,12.387-6.601
			c3.688-1.799,7.065-3.224,10.072-4.475c6.094-2.464,10.605-4.287,14.056-5.684c6.963-2.863,9.706-4.033,12.364-5.259
			c2.691-1.226,4.601-3.201,5.61-5.14c1.003-1.981,1.103-3.896,0.482-5.2c-0.623-1.312-1.959-2.064-3.808-1.837
			c-1.869,0.227-4.321,1.375-7.806,3.876c-3.402,2.407-5.992,4.151-12.266,7.272c-3.148,1.562-7.247,3.423-12.881,6.013
			c-2.815,1.316-6.013,2.806-9.629,4.697c-3.677,1.952-7.394,4.135-11.792,6.62c-18.594,10.577-44.503,26.232-67.506,38.474
			C106.719,135.685,87.335,146.06,83.243,148.251z"/>
		<path fill="#231815" d="M453.157,375.501c-1.354-35.475,6.105-32.587,5.426-17.781c-0.678,14.804,0.678,29.6,0.678,41.444
			c0,11.842,0,23.686-0.678,35.522c-0.076,1.129-0.159,2.365-0.247,3.665c-0.051,0.651-0.104,1.317-0.157,1.993
			c-0.059,1.065-0.118,2.148-0.178,3.239c-0.494,0.128-0.968,0.27-1.418,0.425l-0.656,0.244l0.286-0.227
			c0.288-0.185,0.631-0.384,1.277-0.597c0.235-0.004,0.108-0.238,0.127-0.378l-0.033-0.473l-0.063-0.924l-0.063-0.896l-0.018-0.219
			l-0.004-0.055l-0.002-0.027l-0.004-0.092c-6.053-0.933-1.841,0.629-3.124,0.077v0.017l0.002,0.009l0.008,0.041l0.033,0.165
			l0.133,0.707c0.096,0.562,0.188,1.109,0.276,1.635c0.09-0.395,0.176-0.777,0.257-1.134c0.225-0.978,0.453-2.537,0.676-3.594
			c0.221-1.069,0.435-1.811,0.633-2.104c0.394-0.533,0.721,0.499,0.903,4.694c0.029,0.802,0.055,1.586,0.08,2.289
			c-0.482,0.411-0.95,0.767-1.436,1.096c0.2-0.242,0.419-0.471,0.87-0.684c0.546-0.125,0.909-0.62,0.828-1.276l0.041-0.919
			l0.022-0.461l0.01-0.23l0.004-0.115l0.004-0.057v-0.029l0.002-0.006v0.017c3.06-0.585-4.145,1.14-3.563,0.046l-0.002-0.077
			l-0.086,0.529c-0.057,0.332-0.117,0.614-0.176,0.851c-0.029,0.253-0.059-0.172-0.088-0.265l-0.09-0.456l-0.11-0.501
			c-0.018-0.117-0.037-0.053-0.055-0.312l-0.055-0.677c-0.07-0.903-0.141-1.806-0.212-2.718c-0.118-1.827-0.241-3.694-0.374-5.694
			c-0.219-4.001-0.362-8.535-0.362-14.328C452.479,399.161,453.157,375.501,453.157,375.501z"/>
		<path fill="#231815" d="M453.157,217.835c-1.354-52.14,6.105-47.831,5.426-26.097c-0.678,21.738,0.678,43.47,0.678,60.86
			s0,34.779-0.678,52.166c-0.678,17.389-3.393,52.137-4.072,30.407c-0.678-21.729-2.033-30.434-2.033-56.497
			C452.479,252.601,453.157,217.835,453.157,217.835z"/>
		<path fill="#231815" d="M452.064,158.602c10.197,5.45,18.892,10.547,26.075,15.327c7.145,4.744,12.838,8.833,17.499,12.18
			c9.277,6.706,14.375,10.706,15.889,13.184c1.512,2.456-0.67,3.326-5.51,2.291c-4.813-1.033-12.181-4.206-20.246-9.647
			c-31.303-22.327-66.374-37.468-93.489-51.953c-13.525-7.2-27.176-14.508-40.458-22.336c-13.296-7.779-26.331-15.845-39.3-23.934
			c-3.23-2.03-6.862-4.314-10.685-6.716c-3.663-2.296-7.77-4.536-11.923-6.74c-8.319-4.382-16.775-8.765-22.843-12.867
			c-6.121-4.061-9.676-7.79-9.896-8.826c-0.121-0.526,0.586-0.43,2.266,0.416c1.694,0.832,4.429,2.342,8.66,4.356
			c8.485,4.002,16.203,6.565,23.34,9.194c3.581,1.297,7.042,2.596,10.464,4.012c1.71,0.695,3.414,1.472,5.11,2.249
			c1.62,0.771,3.242,1.543,4.879,2.322c13.055,6.267,26.684,13.504,46.567,24.897c19.795,11.404,43.424,24.005,61.889,34.345
			C438.836,150.622,452.064,158.602,452.064,158.602z"/>
		<path fill="#231815" d="M336.709,292.701c4.19,5.115,7.929,12.003,10.493,17.07c1.246,2.525,7.365,14.507,11.469,27.604
			c2.064,6.531,3.526,13.314,4.278,18.935c0.478,2.797,0.566,5.329,0.842,7.362c0.116,2.046,0.229,3.619,0.358,4.553
			c0.456,3.714,0.468,7.756-0.131,13.048c-0.317,2.642-0.829,5.6-1.863,8.93c-1.034,3.309-2.682,7.076-5.806,10.69
			c-1.136,1.289-2.568,2.511-4.196,3.561c-0.325,0.269-1.04,0.564-1.567,0.819c-0.586,0.285-1.083,0.355-1.636,0.531
			c-1.062,0.255-2.096,0.41-3.077,0.452c-3.964,0.242-7.578-0.416-10.795-1.1c-3.199-0.728-5.931-1.637-7.878-2.409
			c-1.939-0.757-3.132-1.459-3.132-1.459c0.037-0.294,1.8,0.209,4.448,0.561c2.664,0.391,6.309,0.833,10.223,0.93
			c1.955,0.04,3.976,0.007,5.925-0.217c1.924-0.251,3.865-0.655,5.124-1.608c2.924-2.071,4.748-4.65,5.843-6.36
			c2.262-3.424,3.978-9.15,4.572-14.68c0.635-5.521,0.582-10.801,0.484-13.481c0.021-1.352-0.204-4.35-0.658-8.125
			c-0.572-3.761-1.365-8.305-2.652-12.684c-2.38-8.813-6.121-16.978-7.077-18.659c-1.8-3.425-6.123-11.795-10.943-19.962
			c-4.807-8.171-5.522-12.744-5.471-15.233C333.916,289.287,336.709,292.701,336.709,292.701z"/>
		<path fill="#231815" d="M112.007,317.278c6.417-0.652,13.997,0.501,19.366,1.546c2.717,0.431,15.276,3.346,27.849,6.524
			c12.569,3.18,25.462,5.677,29.021,6.018c3.536,0.318,7.296,1.037,12.133,2.094c4.834,1.094,10.748,2.413,18.577,4.597
			c5.63,1.586,12.861,4.75,17.968,8.915c2.554,2.054,4.513,4.346,5.592,6.229c0.521,0.956,0.911,1.728,1.101,2.309
			c0.208,0.562,0.323,0.87,0.323,0.87c-0.247,0.221-1.126-1.382-3.03-3.254c-1.873-1.91-4.85-3.903-8.242-5.527
			c-6.789-3.292-15.135-5.348-19.086-6.569c-7.894-2.525-22.604-5.625-27.769-6.678c-2.566-0.564-11.543-2.127-20.291-3.941
			c-8.746-1.798-17.268-3.575-19.141-3.787c-3.743-0.454-12.742-2.151-21.748-3.206c-8.981-1.034-12.898-2.872-14.885-4.305
			C107.757,317.707,112.007,317.278,112.007,317.278z"/>
		<path fill="#231815" d="M244.156,359.782c2.605,2.394,4.055,6.042,5.071,8.629c0.517,1.3,2.672,7.49,4.775,13.759
			c2.125,6.268,4.303,12.603,5.287,14.152c1.968,3.091,2.813,7.224,6.233,14.527c1.242,2.625,2.241,6.29,3.007,9.254
			c0.723,2.955,1.283,5.25,1.283,5.25c-0.447,0.324-2.513-2.299-4.513-5.657c-1.99-3.345-3.984-7.31-4.677-9.318
			c-1.412-4.007-3.955-11.227-4.848-13.759c-0.842-2.551-6.75-17.203-7.81-18.827c-1.036-1.638-2.985-5.883-5.097-9.957
			c-1.03-2.064-1.455-3.623-1.479-4.972c-0.072-1.27,0.204-2.296,0.501-3.064C242.462,358.24,244.156,359.782,244.156,359.782z"/>
		<path fill="#231815" d="M105.545,322.713c-0.164,1.417,0.163,3.664,0.505,5.78c0.366,2.149,0.778,4.293,1.173,6.092
			c0.327,1.788,2.372,10.37,5.541,18.816c0.774,2.109,1.6,4.212,2.45,6.175c0.429,0.984,0.854,1.91,1.303,2.793
			c0.468,0.922,0.919,1.81,1.346,2.652c1.71,3.365,3.067,5.951,3.8,6.959c2.936,4.018,4.881,9.394,11.241,18.395
			c2.386,3.373,4.65,8.068,6.566,11.774c0.946,1.846,1.81,3.462,2.435,4.428c0.143,0.21,0.272,0.401,0.384,0.568l0.102,0.148
			l-0.008,0.02l-0.278,0.552c-0.149,0.221-0.198,0.472-0.21,0.618l0.006,0.172l-0.049-0.048l0.051,0.057
			c-0.037-0.098-0.024-0.078,0.014-0.334l0.143-0.38c0.129-0.251,0.059-0.162,0.047-0.163c-0.223,0.074-0.885-0.327-1.532-0.874
			c-1.346-1.124-3.001-3-4.666-5.079c-3.32-4.217-6.777-9.128-8.323-11.65c-1.498-2.533-3.549-6.117-5.347-9.525
			c-1.804-3.408-3.381-6.613-4.186-8.278c-0.402-0.832-1.334-2.665-2.544-4.964c-0.613-1.143-1.291-2.406-2-3.727
			c-0.744-1.379-1.426-2.809-2.094-4.244c-2.654-5.726-4.854-11.485-5.453-12.696c-1.191-2.427-3.604-8.47-5.091-15.128
			c-0.731-3.335-0.505-6.11,0.366-8.165c0.482-1.048,1.068-1.881,1.839-2.418c0.345-0.271,0.721-0.441,1.095-0.529
			c0.343-0.117,0.65-0.111,0.924-0.052c1.021,0.192,0.705,0.896,0.576,1.339c-0.067,0.256-0.072,0.476-0.104,0.62
			C105.561,322.608,105.545,322.713,105.545,322.713z"/>
		<path fill="#231815" d="M271.561,393.882c-0.834,1.014-1.553,0.795-2.072,0.636c-0.523-0.159-4.719-2.176-5.573-1.546
			c-0.858,0.63-1.526-0.098-3.222,0.231c-1.23,0.236-2.58-2.006-2.58-2.006c0.231-1.069,3.218-2.465,3.996-2.225
			c0.785,0.241,2.227,0.56,2.723,0.712c0.499,0.153,3.592,0.275,4.027-0.014c0.437-0.291,1.383-0.424,2.325-0.557
			c0.94-0.135,1.011,1.579,0.97,2.837C272.117,393.206,271.561,393.882,271.561,393.882z"/>
		<path fill="#231815" d="M271.011,436.692c1.843-0.973,3.89-1.72,5.608-2.58l0.576-0.298l0.664-0.402
			c0.447-0.263,0.889-0.521,1.318-0.773c0.891-0.487,1.736-0.951,2.507-1.373c3.011-1.87,30.098-13.935,33.334-16.755
			c1.812-1.606,4.121-2.749,6.53-4.369c1.175-0.791,2.468-1.874,3.451-3.095c0.045-0.072-0.029,0.042,0.108-0.245
			c0.084-0.19,0.159-0.4,0.165-0.434l-0.043-0.159c-0.088-0.057,0.027-0.015-0.278-0.12l-0.355-0.121
			c-0.274-0.103-0.552-0.207-0.834-0.314c-3.238-1.225-7.614-2.715-11.32-3.798c-3.716-1.093-6.585-1.937-6.585-1.937
			c-0.041-0.427,4.158-0.432,9.02,0.142c2.433,0.286,5.03,0.781,7.324,1.421c1.142,0.332,2.213,0.677,3.142,1.048
			c0.447,0.173,0.901,0.35,1.414,0.609c0.474,0.25,0.928,0.41,1.207,0.837c0.605,0.726,0.899,1.822,0.611,2.905
			c-0.141,0.572-0.355,1.031-0.537,1.408c-0.159,0.466-0.654,1.001-0.907,1.27c-1.228,1.348-2.756,2.551-4.292,3.523
			c-1.538,0.971-3.048,1.769-4.303,2.492c-0.627,0.363-1.197,0.701-1.688,1.014l-0.358,0.228l-0.421,0.241
			c-0.229,0.121-0.439,0.233-0.627,0.333c-2.944,1.748-20.761,10.97-22.767,12.31c-2.037,1.363-7.134,4.213-12.138,7.373
			c-0.631,0.392-1.201,0.762-2.002,1.093c-0.68,0.289-1.312,0.489-1.896,0.638c-1.171,0.297-2.151,0.389-2.985,0.4
			c-1.665,0.013-2.754-0.307-3.53-0.599C268.556,438.018,271.011,436.692,271.011,436.692z"/>
		<path fill="#231815" d="M157.008,417.763c11.694,2.748,19.36,5.213,35.179,7.819c15.825,2.553,17.646,3.622,27.458,5.58
			c9.815,1.937,7.849,1.553,21.454,4.94c13.602,3.384,0.002-0.001,9.815,1.914c9.811,1.916,14.011,1.288,14.011,1.288l-9.259-4.742
			l-21.73-3.513c0,0-19.484-4.547-27.313-6.152c-7.837-1.581-19.419-4.745-25.268-6.029c-5.849-1.259-17.86-2.469-27.573-4.823
			C144.084,411.675,145.314,414.957,157.008,417.763z"/>
		<path fill="#231815" d="M161.942,454.968c-120.974,1.357-110.881-6.102-60.486-5.425
			c50.405,0.678,100.811-0.677,141.134-0.677c40.325,0,80.65,0,120.972,0.677c40.325,0.678,120.949,3.392,70.558,4.071
			c-50.393,0.678-70.58,2.035-131.044,2.035C242.591,455.648,161.942,454.968,161.942,454.968z"/>
		<path fill="#231815" d="M324.753,376.066c-3.011,0.958-6.575,0.799-9.114,0.745c-1.265,0.011-7.281-0.46-13.157,0.361
			c-2.968,0.396-5.739,1.171-8.074,2.137c-2.323,0.915-4.074,1.784-4.748,2.272c-1.348,0.985-2.915,1.785-4.891,2.884
			c-1.951,1.104-4.388,2.501-6.981,4.871c-1.855,1.688-4.313,3.727-5.355,5.648c-0.547,0.944-0.754,1.839-0.774,2.534
			c-0.041,0.694,0.082,1.151,0.053,1.152c-0.165,0.111-0.725-0.328-1.144-1.383c-0.421-1.043-0.409-2.772,0.262-4.508
			c1.361-3.51,4.666-6.475,6.301-7.601c3.312-2.385,9.78-5.62,12.125-6.553c1.195-0.464,5.018-2.418,9.269-3.667
			c4.205-1.211,8.438-1.649,9.331-1.851c1.8-0.456,6.262-0.824,10.644-0.995c4.372-0.184,6.272,1.229,7.261,2.269
			C326.747,375.425,324.753,376.066,324.753,376.066z"/>
		<path fill="#231815" d="M286.312,390.096c-0.56,0.406-1.017,0.469-1.41,0.628c-0.186,0.015-1.142,0.417-1.943,1.309
			c-0.807,0.855-1.402,1.993-1.414,2.35c-0.006,0.738-0.558,1.331-0.854,2.859c-0.206,1.083-1.545,2.568-1.545,2.568
			c-0.415-0.125-0.306-2.824,0.041-3.599c0.317-0.771,0.958-2.145,1.226-2.609c0.135-0.231,0.517-1.068,0.999-1.861
			c0.466-0.801,1.085-1.532,1.212-1.717c0.196-0.391,0.985-1.19,2.131-1.637c1.216-0.398,1.739,0.456,1.851,0.919
			C286.724,389.806,286.312,390.096,286.312,390.096z"/>
		<path fill="#231815" d="M292.001,394c2.605-1.798,4.333-1.349,4.599-1.043c0.327,0.385-0.327,0.818-1.404,1.045
			c-2.268,0.481-3.935,2.32-5.093,3.688c-1.201,1.395-2.178,2.985-3.003,4.66c-0.97,1.578-1.994,5.428-1.861,2.975
			c0.112-1.241,0.237-2.124,0.462-3.049c0.216-0.927,0.558-1.901,1.324-3.223c0.778-1.317,1.933-2.703,3.007-3.618
			C291.098,394.508,292.001,394,292.001,394z"/>
		<path fill="#231815" d="M322.203,400.381c-1.518,0.107-3.179-0.326-4.384-0.603c-0.595-0.12-3.432-0.934-6.297-1.142
			c-2.815-0.321-5.498,1.157-6.137,1.607c-1.271,0.98-2.966,1.692-5.961,3.84c-1.085,0.768-2.676,1.548-4.06,2.039
			c-1.377,0.508-2.533,0.661-2.533,0.661c-0.094-0.201,1.285-0.946,2.676-2.002c1.414-1.031,2.995-2.234,3.829-2.719
			c1.647-0.988,4.672-2.747,5.823-3.229c0.572-0.219,2.462-1.278,4.664-1.572c2.176-0.246,4.204,0.046,4.656,0.017
			c0.901-0.029,3.052,0.232,5.165,0.599c2.115,0.363,2.872,1.246,3.224,1.837C323.217,400.307,322.203,400.381,322.203,400.381z"/>
		<path fill="#231815" d="M188.89,314.627c0.262,1.542-0.576,2.411-1.156,3.027c-0.294,0.317-1.808,1.625-3.142,3.064
			c-1.357,1.431-2.427,3.055-2.319,3.684c0.106,0.627-0.078,1.108-0.302,1.712c-0.202,0.59-0.476,1.359-0.264,2.249
			c0.069,0.317-0.008,0.631-0.086,0.936c-0.129,0.321-0.265,0.661-0.394,0.983c-0.192,0.353-0.208,0.671-0.313,0.948
			c-0.084,0.279-0.137,0.458-0.137,0.458c-0.241,0.135-0.599,0.109-1.046-0.095c-0.223-0.102-0.47-0.248-0.725-0.436
			c-0.208-0.201-0.427-0.445-0.639-0.723c-0.468-0.55-0.67-1.258-0.87-1.915c-0.098-0.639-0.153-1.257-0.033-1.603
			c0.335-1.475,1.497-3.73,1.992-4.44c0.372-0.805,2.962-5.164,3.107-5.825c0.09-0.713,0.797-2.052,1.477-3.357
			c0.662-1.288,2.307-0.694,3.49-0.183C188.706,313.623,188.89,314.627,188.89,314.627z"/>
		<path fill="#231815" d="M274.237,429.673c2.07-1.088,4.544-2.639,6.386-3.716c0.466-0.269,1.751-1.064,3.582-2.076
			c1.831-0.921,4.117-2.072,6.421-3.23c4.585-2.313,9.21-4.717,10.446-5.396c2.401-1.473,5.481-2.572,11.151-5.259
			c2.045-0.971,4.813-2.001,7.055-2.827c2.223-0.809,3.967-1.442,3.967-1.442c0.37,0.399-8.787,5.348-11.864,6.553
			c-3.056,1.244-8.497,3.617-10.372,4.509c-1.91,0.813-12.659,6.777-13.917,7.565c-0.639,0.426-1.72,1.029-2.973,1.875
			c-1.275,0.841-2.775,1.879-4.344,2.862c-3.138,2-5.271,1.934-6.164,1.54C272.777,430.273,274.272,429.711,274.237,429.673z"/>
		<path fill="#231815" d="M289.973,273.162c1.363-0.212,3.058-0.239,4.393-0.153c0.337,0.038,1.269,0.051,2.623,0.379
			c0.664,0.165,1.485,0.447,2.229,1.092c0.807,0.619,1.173,1.715,1.261,2.622c0.059,0.942-0.08,1.757-0.284,2.569
			c-0.229,0.843-0.627,1.543-1.013,2.146c-0.846,1.14-1.663,1.851-1.976,2.184c-0.619,0.689-1.451,1.265-2.603,1.776
			c-1.152,0.525-2.599,1.062-4.662,1.412c-1.489,0.252-3.608-0.073-5.075-1.004c-0.38-0.181-0.68-0.491-0.956-0.72
			c-0.286-0.225-0.499-0.468-0.648-0.703c-0.3-0.433-0.488-0.703-0.488-0.703c0.084-0.094,0.496,0.126,1.046,0.465
			c0.586,0.306,1.397,0.603,2.266,0.761c1.767,0.293,3.698-0.1,4.617-0.249c1.902-0.165,5.038-1.677,5.876-2.519
			c0.409-0.361,2.051-1.815,2.194-3.723c0.178-0.977,0.008-1.869-0.282-2.362c-0.282-0.505-0.748-0.645-0.903-0.694
			c-0.591-0.234-2.48-0.333-4.703-0.182c-2.219,0.128-3.416-0.937-3.645-1.658C289.004,273.232,290.005,273.17,289.973,273.162z"/>
		<path fill="#231815" d="M269.547,435.68c0.098-1.143-0.098-2.755,0-4.098c0.098-1.344,0.49-1.882,0.49-1.68
			c0,0.202,0.392,0.605,0.392,1.613c0,1.008,0.098,1.813,0.196,2.284c0.098,0.471-0.098,0.269-0.098,1.679s-0.49,1.679-0.588,1.277
			C269.841,436.351,269.547,435.68,269.547,435.68z"/>
		<path fill="#231815" d="M228.347,260.299c-0.699-0.671-1.105-1.548-1.275-2.373c-0.333-1.621,0.239-3.043,1.275-2.318
			c0.607,0.425,0.895,1.372,0.962,2.316C229.415,259.416,228.968,260.898,228.347,260.299z"/>
		<path fill="#231815" d="M240.231,262.802c-1.72-0.626,2.813-4.075,3.908-3.444c1.095,0.629,0,3.132-0.781,3.444
			C242.577,263.115,240.231,262.802,240.231,262.802z"/>
		<path fill="#231815" d="M283.382,243.878c-3.377-2.15-2.396-17.1,3.248-16.59c5.647,0.51,4.797,3.617,4.444,8.289
			C290.72,240.246,287.458,246.471,283.382,243.878z"/>
		<path fill="#231815" d="M223.587,233.012c-2.919-1.445-1.22-10.055,0.975-12.445c2.192-2.39,7.263-1.416,7.287,2.24
			C231.871,226.462,229.922,236.151,223.587,233.012z"/>
		<path fill="#231815" d="M316.189,344.483c-3.22-5.035-4.409-7.555-4.111-8.593c0.245-0.998,1.886-0.29,3.22,1.965
			c2.652,4.458,5.598,8.819,7.083,12.776c1.498,3.917,2.601,8.023,2.881,12.211c0.46,4.248-0.954,12.414-1.369,7.333
			c-0.245-2.516-0.682-4.242-1.14-6.067c-0.472-1.824-0.968-3.746-1.71-6.618c-0.744-2.876-1.853-6.168-2.901-8.697
			C317.088,346.271,316.189,344.483,316.189,344.483z"/>
		<path fill="#231815" d="M333.081,306.977c-4.113,1.018-6.393,9.442-3.304,11.402c0.954,0.606,2.072-0.056,2.924,0.345
			c1.205,0.568,1.873,1.986,2.95,2.971c1.416,1.295,4.513,3.747,6.644,3.588C350.412,324.674,339.835,300.147,333.081,306.977z"/>
		<path fill="#231815" d="M347.439,333.855c-3.203,0.977-7.406,5.055-6.626,8.836c0.609,2.944,1.353,2.185,3.763,2.947
			c0.76,0.24,1.751-0.279,2.495,0.036c0.901,0.381,1.371,2.031,2.38,2.545C359.703,353.438,353.76,327.684,347.439,333.855z"/>
		<path fill="#231815" d="M324.647,274.453c-2.877,0.733-0.842,3.84-0.879,5.495c1.855-0.066,1.089,0.794,1.624,1.868
			c0.492,0.989,0.807,0.802,1.941,1.272c0.705-0.985,0.372-4.068,0.008-5.183C327.101,277.171,325.021,273.614,324.647,274.453z"/>
	</g>
</g>
</svg>
